<?xml version="1.0" ?><!DOCTYPE svg  PUBLIC '-//W3C//DTD SVG 1.1//EN'  'http://www.w3.org/Graphics/SVG/1.1/DTD/svg11.dtd'><svg baseProfile="full" height="58px" version="1.1" width="54px" xmlns="http://www.w3.org/2000/svg" xmlns:ev="http://www.w3.org/2001/xml-events" xmlns:xlink="http://www.w3.org/1999/xlink"><path d="M47,28 C47,28 42,28 42,28 C42,28 42,55 42,55 C42,55 42,57 42,57 C42,57.552 41.552,58 41,58 C40.448,58 40,57.552 40,57 C40,57 40,56 40,56 C40,56 38,56 38,56 C38,56 38,57 38,57 C38,57.552 37.552,58 37,58 C36.448,58 36,57.552 36,57 C36,57 36,56 36,56 C36,56 34,56 34,56 C34,56 34,57 34,57 C34,57.552 33.552,58 33,58 C32.448,58 32,57.552 32,57 C32,57 32,56 32,56 C32,56 30,56 30,56 C30,56 30,57 30,57 C30,57.552 29.552,58 29,58 C28.448,58 28,57.552 28,57 C28,57 28,56 28,56 C28,56 26,56 26,56 C26,56 26,57 26,57 C26,57.552 25.552,58 25,58 C24.448,58 24,57.552 24,57 C24,57 24,56 24,56 C24,56 22,56 22,56 C22,56 22,57 22,57 C22,57.552 21.552,58 21,58 C20.448,58 20,57.552 20,57 C20,57 20,56 20,56 C20,56 18,56 18,56 C18,56 18,57 18,57 C18,57.552 17.552,58 17,58 C16.448,58 16,57.552 16,57 C16,57 16,56 16,56 C16,56 14,56 14,56 C14,56 14,57 14,57 C14,57.552 13.552,58 13,58 C12.448,58 12,57.552 12,57 C12,57 12,56 12,56 C12,56 10,56 10,56 C10,56 10,57 10,57 C10,57.552 9.55200000000002,58 9,58 C8.44799999999998,58 8,57.552 8,57 C8,57 8,55 8,55 C8,55 8,28 8,28 C8,28 1,28 1,28 C0.44799999999998,28 0,27.552 0,27 C0,26.448 0.44799999999998,26 1,26 C1,26 8,26 8,26 C8,26 8,22 8,22 C8,22 1,22 1,22 C0.44799999999998,22 0,21.552 0,21 C0,20.448 0.44799999999998,20 1,20 C1,20 8.18399999999997,20 8.18399999999997,20 C8.59900000000005,18.839 9.69799999999998,18 11,18 C11,18 39,18 39,18 C40.302,18 41.402,18.839 41.816,20 C41.816,20 46,20 46,20 C46,20 46,8 46,8 C46,8 1,8 1,8 C0.44799999999998,8 0,7.55200000000002 0,7 C0,6.44799999999998 0.44799999999998,6 1,6 C1,6 46,6 46,6 C47.103,6 48,6.89699999999999 48,8 C48,8 48,20 48,20 C48,21.103 47.103,22 46,22 C46,22 42,22 42,22 C42,22 42,26 42,26 C42,26 47,26 47,26 C49.7569999999999,26 52,23.757 52,21 C52,21 52,7 52,7 C52,4.24299999999999 49.7569999999999,2 47,2 C47,2 1,2 1,2 C0.44799999999998,2 0,1.55200000000002 0,1 C0,0.44799999999998 0.44799999999998,0 1,0 C1,0 47,0 47,0 C50.86,0 54,3.13999999999999 54,7 C54,7 54,21 54,21 C54,24.86 50.86,28 47,28 ZM40,50 C40,50 10,50 10,50 C10,50 10,54 10,54 C10,54 40,54 40,54 C40,54 40,50 40,50 ZM39,20 C39,20 11,20 11,20 C10.449,20 10,20.449 10,21 C10,21 10,27 10,27 C10,27 10,48 10,48 C10,48 40,48 40,48 C40,48 40,27 40,27 C40,27 40,21 40,21 C40,20.449 39.551,20 39,20 Z " fill="rgb( 80, 80, 112 )"/></svg>