<?xml version="1.0" ?><!DOCTYPE svg  PUBLIC '-//W3C//DTD SVG 1.1//EN'  'http://www.w3.org/Graphics/SVG/1.1/DTD/svg11.dtd'><svg baseProfile="full" height="60px" version="1.1" width="52px" xmlns="http://www.w3.org/2000/svg" xmlns:ev="http://www.w3.org/2001/xml-events" xmlns:xlink="http://www.w3.org/1999/xlink"><path d="M51,8 C51.5519999999999,8 52,8.44699999999989 52,9 C52,9 52,59 52,59 C52,59.5530000000001 51.5519999999999,60 51,60 C51,60 5,60 5,60 C2.24299999999994,60 0,57.7570000000001 0,55 C0,55 0,5 0,5 C0,2.24299999999994 2.24299999999994,0 5,0 C5,0 51,0 51,0 C51.5519999999999,0 52,0.44699999999989 52,1 C52,1.55300000000011 51.5519999999999,2 51,2 C49.346,2 48,3.346 48,5 C48,6.654 49.346,8 51,8 ZM10,58 C10,58 50,58 50,58 C50,58 50,10 50,10 C50,10 10,10 10,10 C10,10 10,58 10,58 ZM2,55 C2,56.654 3.346,58 5,58 C5,58 8,58 8,58 C8,58 8,10 8,10 C8,10 5,10 5,10 C4.68200000000002,10 4.37400000000002,9.96299999999997 4.07199999999989,9.90599999999995 C3.97700000000009,9.88799999999992 3.88699999999994,9.85899999999992 3.7940000000001,9.83600000000001 C3.58899999999994,9.78500000000008 3.3889999999999,9.72499999999991 3.19499999999994,9.65000000000009 C3.096,9.6110000000001 3,9.56899999999996 2.90300000000002,9.52399999999989 C2.72000000000003,9.4380000000001 2.54500000000007,9.3420000000001 2.375,9.2360000000001 C2.28999999999996,9.18399999999997 2.20499999999993,9.13400000000001 2.12400000000002,9.077 C2.08400000000006,9.04899999999998 2.03899999999999,9.02800000000002 2,8.99800000000005 C2,8.99800000000005 2,55 2,55 ZM47.002,2 C47.002,2 5,2 5,2 C3.346,2 2,3.346 2,5 C2,6.654 3.346,8 5,8 C5,8 47.002,8 47.002,8 C46.373,7.16399999999999 46,6.125 46,5 C46,3.875 46.373,2.83600000000001 47.002,2 ZM43,6 C43,6 5,6 5,6 C4.44800000000009,6 4,5.55300000000011 4,5 C4,4.44699999999989 4.44800000000009,4 5,4 C5,4 43,4 43,4 C43.5519999999999,4 44,4.44699999999989 44,5 C44,5.55300000000011 43.5519999999999,6 43,6 ZM43,38 C43,38 17,38 17,38 C16.4480000000001,38 16,37.5530000000001 16,37 C16,36.4469999999999 16.4480000000001,36 17,36 C17,36 43,36 43,36 C43.5519999999999,36 44,36.4469999999999 44,37 C44,37.5530000000001 43.5519999999999,38 43,38 ZM43,34 C43,34 17,34 17,34 C16.4480000000001,34 16,33.5530000000001 16,33 C16,32.4469999999999 16.4480000000001,32 17,32 C17,32 43,32 43,32 C43.5519999999999,32 44,32.4469999999999 44,33 C44,33.5530000000001 43.5519999999999,34 43,34 ZM35,28 C35,28 25,28 25,28 C24.4480000000001,28 24,27.5530000000001 24,27 C24,26.4469999999999 24.4480000000001,26 25,26 C25,26 35,26 35,26 C35.5519999999999,26 36,26.4469999999999 36,27 C36,27.5530000000001 35.5519999999999,28 35,28 Z " fill="rgb( 80, 80, 112 )"/></svg>