<?xml version="1.0" ?><!DOCTYPE svg  PUBLIC '-//W3C//DTD SVG 1.1//EN'  'http://www.w3.org/Graphics/SVG/1.1/DTD/svg11.dtd'><svg baseProfile="full" height="46px" version="1.1" width="61px" xmlns="http://www.w3.org/2000/svg" xmlns:ev="http://www.w3.org/2001/xml-events" xmlns:xlink="http://www.w3.org/1999/xlink"><path d="M60.984,44.054 C60.981,44.126 60.961,44.192 60.943,44.26 C60.927,44.319 60.917,44.378 60.8920000000001,44.432 C60.864,44.49 60.824,44.537 60.7859999999999,44.5890000000001 C60.747,44.641 60.7140000000001,44.694 60.667,44.737 C60.623,44.778 60.569,44.8049999999999 60.518,44.838 C60.458,44.876 60.402,44.914 60.335,44.938 C60.319,44.944 60.309,44.957 60.292,44.962 C60.193,44.9930000000001 60.093,45.008 59.994,45.008 C59.9930000000001,45.008 59.992,45.0069999999999 59.991,45.0069999999999 C59.991,45.0069999999999 52.994,45.0069999999999 52.994,45.0069999999999 C52.994,45.0069999999999 38.3680000000001,45.0069999999999 38.3680000000001,45.0069999999999 C38.3680000000001,45.0069999999999 23.6180000000001,45.0069999999999 23.6180000000001,45.0069999999999 C23.6180000000001,45.0069999999999 8.99199999999996,45.0069999999999 8.99199999999996,45.0069999999999 C8.99199999999996,45.0069999999999 1.995,45.0069999999999 1.995,45.0069999999999 C1.99400000000003,45.0069999999999 1.99400000000003,45.008 1.99199999999996,45.008 C1.89300000000003,45.008 1.79300000000001,44.9930000000001 1.69299999999998,44.962 C1.67700000000002,44.957 1.66600000000005,44.944 1.65099999999995,44.938 C1.58399999999995,44.914 1.52800000000002,44.876 1.46900000000005,44.838 C1.41700000000003,44.806 1.36300000000006,44.778 1.31899999999996,44.737 C1.27200000000005,44.694 1.23800000000006,44.641 1.20000000000005,44.5890000000001 C1.16200000000003,44.537 1.12199999999996,44.49 1.09400000000005,44.432 C1.06899999999996,44.378 1.05799999999999,44.318 1.04300000000001,44.258 C1.02499999999998,44.191 1.005,44.126 1.00199999999995,44.0549999999999 C1.00099999999998,44.038 0.99199999999996,44.024 0.99199999999996,44.0069999999999 C0.99199999999996,44.0069999999999 0.99199999999996,34.008 0.99199999999996,34.008 C0.99199999999996,33.456 1.44000000000005,33.008 1.99199999999996,33.008 C2.54399999999998,33.008 2.99199999999996,33.456 2.99199999999996,34.008 C2.99199999999996,34.008 2.99199999999996,37.455 2.99199999999996,37.455 C2.99199999999996,37.455 11.038,11.711 11.038,11.711 C11.044,11.692 11.0549999999999,11.676 11.0650000000001,11.66 C11.1130000000001,11.534 11.187,11.422 11.283,11.322 C11.2859999999999,11.319 11.288,11.316 11.2910000000001,11.313 C11.342,11.261 11.396,11.2190000000001 11.457,11.1799999999999 C11.458,11.179 11.4589999999999,11.179 11.46,11.179 C11.484,11.163 11.5,11.138 11.526,11.124 C11.526,11.124 30.527,1.125 30.527,1.125 C30.819,0.97199999999998 31.167,0.97199999999998 31.4589999999999,1.125 C31.4589999999999,1.125 50.4589999999999,11.124 50.4589999999999,11.124 C50.489,11.14 50.5069999999999,11.167 50.534,11.1849999999999 C50.534,11.1849999999999 50.534,11.1849999999999 50.535,11.1849999999999 C50.59,11.222 50.64,11.261 50.688,11.308 C50.6900000000001,11.3099999999999 50.692,11.313 50.694,11.316 C50.796,11.419 50.877,11.5359999999999 50.925,11.669 C50.934,11.682 50.943,11.6950000000001 50.948,11.711 C50.948,11.711 58.994,37.454 58.994,37.454 C58.994,37.454 58.994,34.008 58.994,34.008 C58.994,33.456 59.442,33.008 59.994,33.008 C60.546,33.008 60.994,33.456 60.994,34.008 C60.994,34.008 60.994,44.0069999999999 60.994,44.0069999999999 C60.994,44.024 60.985,44.038 60.984,44.054 ZM51.896,43.0069999999999 C51.896,43.0069999999999 51.708,41.0069999999999 51.708,41.0069999999999 C51.708,41.0069999999999 38.417,41.0069999999999 38.417,41.0069999999999 C38.417,41.0069999999999 39.088,43.0069999999999 39.088,43.0069999999999 C39.088,43.0069999999999 51.896,43.0069999999999 51.896,43.0069999999999 ZM36.978,43.0069999999999 C36.978,43.0069999999999 30.9930000000001,25.154 30.9930000000001,25.154 C30.9930000000001,25.154 25.008,43.0069999999999 25.008,43.0069999999999 C25.008,43.0069999999999 36.978,43.0069999999999 36.978,43.0069999999999 ZM3.35199999999998,43.0069999999999 C3.35199999999998,43.0069999999999 8.08199999999999,43.0069999999999 8.08199999999999,43.0069999999999 C8.08199999999999,43.0069999999999 10.1079999999999,21.39 10.1079999999999,21.39 C10.1079999999999,21.39 3.35199999999998,43.0069999999999 3.35199999999998,43.0069999999999 ZM10.09,43.0069999999999 C10.09,43.0069999999999 22.898,43.0069999999999 22.898,43.0069999999999 C22.898,43.0069999999999 23.569,41.0069999999999 23.569,41.0069999999999 C23.569,41.0069999999999 10.278,41.0069999999999 10.278,41.0069999999999 C10.278,41.0069999999999 10.09,43.0069999999999 10.09,43.0069999999999 ZM49.048,12.6420000000001 C49.048,12.6420000000001 30.9930000000001,3.13999999999999 30.9930000000001,3.13999999999999 C30.9930000000001,3.13999999999999 12.937,12.6420000000001 12.937,12.6420000000001 C12.937,12.6420000000001 10.465,39.008 10.465,39.008 C10.465,39.008 24.239,39.008 24.239,39.008 C24.239,39.008 30.045,21.691 30.045,21.691 C30.181,21.283 30.563,21.009 30.9930000000001,21.009 C31.423,21.009 31.804,21.283 31.941,21.691 C31.941,21.691 37.747,39.008 37.747,39.008 C37.747,39.008 51.521,39.008 51.521,39.008 C51.521,39.008 49.048,12.6420000000001 49.048,12.6420000000001 ZM51.878,21.39 C51.878,21.39 53.904,43.0069999999999 53.904,43.0069999999999 C53.904,43.0069999999999 58.634,43.0069999999999 58.634,43.0069999999999 C58.634,43.0069999999999 51.878,21.39 51.878,21.39 ZM45.9930000000001,30.008 C45.9930000000001,30.008 39.9930000000001,30.008 39.9930000000001,30.008 C39.441,30.008 38.9930000000001,29.5599999999999 38.9930000000001,29.008 C38.9930000000001,29.008 38.9930000000001,22.009 38.9930000000001,22.009 C38.9930000000001,21.456 39.441,21.009 39.9930000000001,21.009 C39.9930000000001,21.009 45.9930000000001,21.009 45.9930000000001,21.009 C46.546,21.009 46.994,21.456 46.994,22.009 C46.994,22.009 46.994,29.008 46.994,29.008 C46.994,29.5599999999999 46.546,30.008 45.9930000000001,30.008 ZM44.9930000000001,23.009 C44.9930000000001,23.009 40.9930000000001,23.009 40.9930000000001,23.009 C40.9930000000001,23.009 40.9930000000001,28.008 40.9930000000001,28.008 C40.9930000000001,28.008 44.9930000000001,28.008 44.9930000000001,28.008 C44.9930000000001,28.008 44.9930000000001,23.009 44.9930000000001,23.009 ZM21.9930000000001,30.008 C21.9930000000001,30.008 15.992,30.008 15.992,30.008 C15.4400000000001,30.008 14.9930000000001,29.5599999999999 14.9930000000001,29.008 C14.9930000000001,29.008 14.9930000000001,22.009 14.9930000000001,22.009 C14.9930000000001,21.456 15.4400000000001,21.009 15.992,21.009 C15.992,21.009 21.9930000000001,21.009 21.9930000000001,21.009 C22.545,21.009 22.9930000000001,21.456 22.9930000000001,22.009 C22.9930000000001,22.009 22.9930000000001,29.008 22.9930000000001,29.008 C22.9930000000001,29.5599999999999 22.545,30.008 21.9930000000001,30.008 ZM20.9930000000001,23.009 C20.9930000000001,23.009 16.992,23.009 16.992,23.009 C16.992,23.009 16.992,28.008 16.992,28.008 C16.992,28.008 20.9930000000001,28.008 20.9930000000001,28.008 C20.9930000000001,28.008 20.9930000000001,23.009 20.9930000000001,23.009 Z " fill="rgb( 80, 80, 112 )"/></svg>