<?xml version="1.0" ?><!DOCTYPE svg  PUBLIC '-//W3C//DTD SVG 1.1//EN'  'http://www.w3.org/Graphics/SVG/1.1/DTD/svg11.dtd'><svg baseProfile="full" height="55px" version="1.1" width="59px" xmlns="http://www.w3.org/2000/svg" xmlns:ev="http://www.w3.org/2001/xml-events" xmlns:xlink="http://www.w3.org/1999/xlink"><path d="M55.0039999999999,26.002 C54.452,26.002 54.0039999999999,25.5549999999999 54.0039999999999,25.002 C54.0039999999999,25.002 54.0039999999999,12.002 54.0039999999999,12.002 C54.0039999999999,12.002 2.00399999999991,12.002 2.00399999999991,12.002 C2.00399999999991,12.002 2.00399999999991,49.002 2.00399999999991,49.002 C2.00399999999991,49.554 2.452,50.002 3.00399999999991,50.002 C3.00399999999991,50.002 29.0039999999999,50.002 29.0039999999999,50.002 C29.556,50.002 30.0039999999999,50.449 30.0039999999999,51.002 C30.0039999999999,51.5549999999999 29.556,52.002 29.0039999999999,52.002 C29.0039999999999,52.002 3.00399999999991,52.002 3.00399999999991,52.002 C1.34899999999993,52.002 0.00399999999991,50.6559999999999 0.00399999999991,49.002 C0.00399999999991,49.002 0.00399999999991,3.00199999999995 0.00399999999991,3.00199999999995 C0.00399999999991,1.34799999999996 1.34899999999993,0.00199999999995 3.00399999999991,0.00199999999995 C3.00399999999991,0.00199999999995 53.0039999999999,0.00199999999995 53.0039999999999,0.00199999999995 C54.6579999999999,0.00199999999995 56.0039999999999,1.34799999999996 56.0039999999999,3.00199999999995 C56.0039999999999,3.00199999999995 56.0039999999999,25.002 56.0039999999999,25.002 C56.0039999999999,25.5549999999999 55.556,26.002 55.0039999999999,26.002 ZM54.0039999999999,3.00199999999995 C54.0039999999999,2.45000000000005 53.5550000000001,2.00199999999995 53.0039999999999,2.00199999999995 C53.0039999999999,2.00199999999995 3.00399999999991,2.00199999999995 3.00399999999991,2.00199999999995 C2.452,2.00199999999995 2.00399999999991,2.45000000000005 2.00399999999991,3.00199999999995 C2.00399999999991,3.00199999999995 2.00399999999991,10.002 2.00399999999991,10.002 C2.00399999999991,10.002 54.0039999999999,10.002 54.0039999999999,10.002 C54.0039999999999,10.002 54.0039999999999,3.00199999999995 54.0039999999999,3.00199999999995 ZM6.00299999999993,4.00199999999995 C7.10599999999999,4.00199999999995 8.00399999999991,4.89999999999998 8.00399999999991,6.00199999999995 C8.00399999999991,7.10500000000002 7.10599999999999,8.00199999999995 6.00299999999993,8.00199999999995 C4.90100000000007,8.00199999999995 4.00299999999993,7.10500000000002 4.00299999999993,6.00199999999995 C4.00299999999993,4.89999999999998 4.90100000000007,4.00199999999995 6.00299999999993,4.00199999999995 ZM12.0039999999999,4.00199999999995 C13.107,4.00199999999995 14.0039999999999,4.89999999999998 14.0039999999999,6.00199999999995 C14.0039999999999,7.10500000000002 13.107,8.00199999999995 12.0039999999999,8.00199999999995 C10.9010000000001,8.00199999999995 10.0039999999999,7.10500000000002 10.0039999999999,6.00199999999995 C10.0039999999999,4.89999999999998 10.9010000000001,4.00199999999995 12.0039999999999,4.00199999999995 ZM18.0039999999999,4.00199999999995 C19.107,4.00199999999995 20.0039999999999,4.89999999999998 20.0039999999999,6.00199999999995 C20.0039999999999,7.10500000000002 19.107,8.00199999999995 18.0039999999999,8.00199999999995 C16.9010000000001,8.00199999999995 16.0039999999999,7.10500000000002 16.0039999999999,6.00199999999995 C16.0039999999999,4.89999999999998 16.9010000000001,4.00199999999995 18.0039999999999,4.00199999999995 ZM45.0039999999999,28.002 C52.172,28.002 58.0039999999999,33.8339999999999 58.0039999999999,41.002 C58.0039999999999,48.17 52.172,54.002 45.0039999999999,54.002 C37.835,54.002 32.0039999999999,48.17 32.0039999999999,41.002 C32.0039999999999,33.8339999999999 37.835,28.002 45.0039999999999,28.002 ZM45.0039999999999,52.002 C51.069,52.002 56.0039999999999,47.067 56.0039999999999,41.002 C56.0039999999999,34.937 51.069,30.002 45.0039999999999,30.002 C38.9380000000001,30.002 34.0039999999999,34.937 34.0039999999999,41.002 C34.0039999999999,47.067 38.9380000000001,52.002 45.0039999999999,52.002 ZM45.0039999999999,34.002 C45.556,34.002 46.0039999999999,34.449 46.0039999999999,35.002 C46.0039999999999,35.002 46.0039999999999,40.002 46.0039999999999,40.002 C46.0039999999999,40.002 51.0039999999999,40.002 51.0039999999999,40.002 C51.556,40.002 52.0039999999999,40.449 52.0039999999999,41.002 C52.0039999999999,41.5549999999999 51.556,42.002 51.0039999999999,42.002 C51.0039999999999,42.002 45.0039999999999,42.002 45.0039999999999,42.002 C44.452,42.002 44.0039999999999,41.5549999999999 44.0039999999999,41.002 C44.0039999999999,41.002 44.0039999999999,35.002 44.0039999999999,35.002 C44.0039999999999,34.449 44.452,34.002 45.0039999999999,34.002 Z " fill="rgb( 80, 80, 112 )"/></svg>