<?xml version="1.0" ?><!DOCTYPE svg  PUBLIC '-//W3C//DTD SVG 1.1//EN'  'http://www.w3.org/Graphics/SVG/1.1/DTD/svg11.dtd'><svg baseProfile="full" height="46px" version="1.1" width="61px" xmlns="http://www.w3.org/2000/svg" xmlns:ev="http://www.w3.org/2001/xml-events" xmlns:xlink="http://www.w3.org/1999/xlink"><path d="M56.0819999999999,17.998 C56.0819999999999,17.998 56.0810000000001,17.998 56.0810000000001,17.998 C56.0810000000001,17.998 56.0810000000001,20 56.0810000000001,20 C56.0810000000001,20.833 56.1149999999998,21.678 56.181,22.5119999999999 C56.181,22.5119999999999 57.741,40.9299999999999 57.741,40.9299999999999 C57.8499999999999,42.23 57.4070000000002,43.527 56.5239999999999,44.4880000000001 C55.6410000000001,45.449 54.3870000000002,46 53.0810000000001,46 C51.7759999999998,46 50.5210000000002,45.449 49.6379999999999,44.4880000000001 C48.7559999999999,43.527 48.3119999999999,42.23 48.422,40.9299999999999 C48.422,40.9299999999999 49.9810000000002,22.5069999999999 49.9810000000002,22.5069999999999 C50.0479999999998,21.678 50.0810000000001,20.833 50.0810000000001,20 C50.0810000000001,20 50.0810000000001,17.998 50.0810000000001,17.998 C47.8760000000002,17.998 46.0810000000001,16.204 46.0810000000001,14 C46.0810000000001,14 46.0830000000001,1 46.0830000000001,1 C46.0830000000001,0.44799999999998 46.5309999999999,0 47.0830000000001,0 C47.6350000000002,0 48.0830000000001,0.44799999999998 48.0830000000001,1 C48.0830000000001,1 48.0810000000001,14 48.0810000000001,14 C48.0810000000001,15.102 48.9789999999998,15.998 50.0819999999999,15.998 C50.0819999999999,15.998 56.0819999999999,15.998 56.0819999999999,15.998 C57.1840000000002,15.998 58.0810000000001,15.102 58.0810000000001,14 C58.0810000000001,14 58.0810000000001,1 58.0810000000001,1 C58.0810000000001,0.44799999999998 58.529,0 59.0810000000001,0 C59.634,0 60.0810000000001,0.44799999999998 60.0810000000001,1 C60.0810000000001,1 60.0810000000001,14 60.0810000000001,14 C60.0810000000001,16.204 58.2869999999998,17.998 56.0819999999999,17.998 ZM54.1880000000001,22.676 C54.1170000000002,21.785 54.0810000000001,20.886 54.0810000000001,20 C54.0810000000001,20 54.0810000000001,17.998 54.0810000000001,17.998 C54.0810000000001,17.998 52.0810000000001,17.998 52.0810000000001,17.998 C52.0810000000001,17.998 52.0810000000001,20 52.0810000000001,20 C52.0810000000001,20.886 52.0450000000001,21.785 51.9740000000002,22.671 C51.9740000000002,22.671 50.415,41.098 50.415,41.098 C50.3510000000001,41.853 50.5990000000002,42.577 51.1109999999999,43.135 C52.1370000000002,44.251 54.0259999999998,44.251 55.0509999999999,43.135 C55.5639999999999,42.577 55.8110000000001,41.853 55.7469999999998,41.098 C55.7469999999998,41.098 54.1880000000001,22.676 54.1880000000001,22.676 ZM55.0810000000001,14 C54.529,14 54.0810000000001,13.552 54.0810000000001,13 C54.0810000000001,13 54.0810000000001,1 54.0810000000001,1 C54.0810000000001,0.44799999999998 54.529,0 55.0810000000001,0 C55.6329999999998,0 56.0810000000001,0.44799999999998 56.0810000000001,1 C56.0810000000001,1 56.0810000000001,13 56.0810000000001,13 C56.0810000000001,13.552 55.6329999999998,14 55.0810000000001,14 ZM51.0810000000001,14 C50.529,14 50.0810000000001,13.552 50.0810000000001,13 C50.0810000000001,13 50.0810000000001,1 50.0810000000001,1 C50.0810000000001,0.44799999999998 50.529,0 51.0810000000001,0 C51.634,0 52.0810000000001,0.44799999999998 52.0810000000001,1 C52.0810000000001,1 52.0810000000001,13 52.0810000000001,13 C52.0810000000001,13.552 51.634,14 51.0810000000001,14 ZM23.0819999999999,46 C10.3989999999999,46 0.08100000000013,35.682 0.08100000000013,23 C0.08100000000013,10.318 10.3989999999999,0 23.0819999999999,0 C35.7640000000001,0 46.0810000000001,10.318 46.0810000000001,23 C46.0810000000001,35.682 35.7640000000001,46 23.0819999999999,46 ZM23.0819999999999,2 C11.502,2 2.08100000000013,11.421 2.08100000000013,23 C2.08100000000013,34.58 11.502,44 23.0819999999999,44 C34.6610000000001,44 44.0810000000001,34.58 44.0810000000001,23 C44.0810000000001,11.421 34.6610000000001,2 23.0819999999999,2 ZM38.3110000000001,24 C37.761,24 37.3110000000001,23.55 37.3110000000001,23 C37.3110000000001,22.99 37.3110000000001,22.98 37.3110000000001,22.97 C37.3110000000001,22.96 37.3110000000001,22.95 37.3110000000001,22.9400000000001 C37.3110000000001,22.39 37.7510000000002,21.9400000000001 38.3110000000001,21.9400000000001 C38.8609999999999,21.9400000000001 39.3110000000001,22.38 39.3110000000001,22.9299999999999 C39.3110000000001,22.95 39.3110000000001,22.96 39.3110000000001,22.97 C39.3110000000001,22.98 39.3110000000001,22.99 39.3110000000001,23 C39.3110000000001,23.55 38.8609999999999,24 38.3110000000001,24 ZM38.0410000000002,19.96 C37.9609999999998,19.99 37.8710000000001,20 37.7809999999999,20 C37.3409999999999,20 36.9409999999998,19.71 36.8209999999999,19.26 C36.8209999999999,19.26 36.8110000000001,19.26 36.8110000000001,19.26 C36.6709999999998,18.73 36.991,18.1799999999999 37.5210000000002,18.03 C38.0509999999999,17.889 38.6010000000001,18.2 38.7510000000002,18.74 C38.8910000000001,19.27 38.5709999999999,19.8200000000001 38.0410000000002,19.96 ZM36.2510000000002,16.33 C35.9009999999998,16.33 35.5709999999999,16.16 35.3809999999999,15.84 C35.1010000000001,15.36 35.261,14.75 35.741,14.47 C36.221,14.1900000000001 36.8310000000001,14.349 37.1109999999999,14.829 C37.3910000000001,15.3099999999999 37.2310000000002,15.92 36.7510000000002,16.2 C36.5909999999999,16.29 36.4209999999998,16.33 36.2510000000002,16.33 ZM33.8609999999999,34.76 C33.6010000000001,34.76 33.3409999999999,34.67 33.1509999999998,34.47 C32.761,34.079 32.761,33.45 33.1509999999998,33.0599999999999 C33.5410000000002,32.67 34.1709999999998,32.67 34.5610000000001,33.0599999999999 C34.951,33.45 34.951,34.079 34.5610000000001,34.47 C34.3710000000001,34.67 34.1109999999999,34.76 33.8609999999999,34.76 ZM33.8110000000001,13.1900000000001 C33.5610000000001,13.1900000000001 33.3009999999999,13.099 33.1109999999999,12.9 C32.721,12.51 32.7109999999998,11.88 33.1010000000001,11.49 C33.491,11.099 34.1210000000001,11.09 34.5210000000002,11.48 C34.9110000000001,11.869 34.9110000000001,12.5 34.5210000000002,12.9 C34.3310000000001,13.09 34.0709999999999,13.1900000000001 33.8110000000001,13.1900000000001 ZM30.7109999999998,37.1900000000001 C30.3609999999999,37.1900000000001 30.0210000000002,37.01 29.8409999999999,36.6900000000001 C29.5610000000001,36.21 29.7310000000002,35.599 30.2109999999998,35.3200000000001 C30.2109999999998,35.3200000000001 30.201,35.3200000000001 30.201,35.3200000000001 C30.681,35.05 31.2910000000002,35.21 31.5709999999999,35.6900000000001 C31.8510000000001,36.16 31.681,36.78 31.2109999999998,37.05 C31.0509999999999,37.14 30.8809999999999,37.1900000000001 30.7109999999998,37.1900000000001 ZM30.6509999999998,10.78 C30.4810000000002,10.78 30.3110000000001,10.74 30.1509999999998,10.65 C29.681,10.37 29.511,9.75999999999999 29.7910000000002,9.27999999999997 C30.0610000000001,8.79999999999995 30.6709999999998,8.63900000000001 31.1509999999998,8.90999999999997 C31.6309999999999,9.19000000000005 31.7910000000002,9.79999999999995 31.5210000000002,10.28 C31.3310000000001,10.599 31.0010000000002,10.78 30.6509999999998,10.78 ZM27.2910000000002,38.6799999999999 C27.2910000000002,38.6799999999999 27.2910000000002,38.6799999999999 27.3009999999999,38.6799999999999 C27.2109999999998,38.7 27.1210000000001,38.71 27.0410000000002,38.71 C26.5909999999999,38.71 26.1909999999998,38.42 26.0709999999999,37.97 C25.931,37.4400000000001 26.241,36.889 26.7809999999999,36.75 C27.3110000000001,36.599 27.8609999999999,36.92 28.0010000000002,37.45 C28.1419999999998,37.99 27.8310000000001,38.53 27.2910000000002,38.6799999999999 ZM26.9810000000002,9.26999999999998 C26.8910000000001,9.26999999999998 26.8110000000001,9.25999999999999 26.721,9.24000000000001 C26.1909999999998,9.09900000000005 25.8710000000001,8.54999999999995 26.011,8.01999999999998 C26.1509999999998,7.48000000000002 26.701,7.15999999999997 27.2310000000002,7.29999999999995 C27.761,7.45000000000005 28.0810000000001,7.99000000000001 27.9409999999998,8.52999999999997 C27.8209999999999,8.98000000000002 27.4209999999998,9.26999999999998 26.9810000000002,9.26999999999998 ZM23.1010000000001,39.23 C22.5410000000002,39.23 22.1010000000001,38.78 22.1010000000001,38.23 C22.0909999999999,37.6799999999999 22.5410000000002,37.23 23.0909999999999,37.23 C23.6509999999998,37.23 24.0909999999999,37.6799999999999 24.0909999999999,38.23 C24.1010000000001,38.78 23.6509999999998,39.23 23.1010000000001,39.23 ZM23.0410000000002,8.76999999999998 C22.4810000000002,8.76999999999998 22.0410000000002,8.32899999999995 22.0309999999999,7.76999999999998 C22.0309999999999,7.22000000000003 22.4810000000002,6.76999999999998 23.0309999999999,6.76999999999998 C23.5810000000001,6.76999999999998 24.0309999999999,7.21000000000004 24.0309999999999,7.76999999999998 C24.0410000000002,8.32000000000005 23.5909999999999,8.76999999999998 23.0410000000002,8.76999999999998 ZM19.1509999999998,38.72 C19.0709999999999,38.72 18.9810000000002,38.71 18.9009999999998,38.6900000000001 C18.3609999999999,38.54 18.0509999999999,38 18.1909999999998,37.46 C18.3310000000001,36.9299999999999 18.8809999999999,36.61 19.4110000000001,36.75 C19.9409999999998,36.9 20.261,37.4400000000001 20.1210000000001,37.98 C20.0010000000002,38.42 19.6010000000001,38.72 19.1509999999998,38.72 ZM19.3609999999999,9.25999999999999 C19.2710000000002,9.27999999999997 19.181,9.29999999999995 19.0909999999999,9.29999999999995 C18.6509999999998,9.29999999999995 18.2510000000002,9 18.1309999999999,8.55999999999995 C17.9810000000002,8.01999999999998 18.3009999999999,7.47000000000003 18.8310000000001,7.32899999999995 C19.3710000000001,7.19000000000005 19.9209999999998,7.5 20.0610000000001,8.02999999999997 C20.201,8.57000000000005 19.8910000000001,9.11900000000003 19.3609999999999,9.25999999999999 ZM15.4810000000002,37.2 C15.3110000000001,37.2 15.1410000000001,37.16 14.9810000000002,37.0700000000001 C14.5010000000002,36.79 14.3409999999999,36.1799999999999 14.6109999999999,35.7 C14.8919999999998,35.23 15.5010000000002,35.0599999999999 15.9810000000002,35.34 C16.4609999999998,35.61 16.6210000000001,36.22 16.3510000000001,36.7 C16.1610000000001,37.02 15.8310000000001,37.2 15.4810000000002,37.2 ZM15.431,10.829 C15.0909999999999,10.829 14.7510000000002,10.65 14.5610000000001,10.329 C14.2910000000002,9.84900000000005 14.451,9.24000000000001 14.9209999999998,8.96000000000004 C15.4009999999998,8.69000000000005 16.011,8.84900000000005 16.2910000000002,9.32000000000005 C16.5709999999999,9.79999999999995 16.4110000000001,10.41 15.931,10.6900000000001 C15.7710000000002,10.78 15.6010000000001,10.829 15.431,10.829 ZM12.3310000000001,34.79 C12.0709999999999,34.79 11.8110000000001,34.6900000000001 11.6210000000001,34.49 C11.2310000000002,34.099 11.2310000000002,33.47 11.6210000000001,33.079 C12.011,32.6900000000001 12.6419999999998,32.6900000000001 13.0309999999999,33.079 C13.4209999999998,33.47 13.431,34.099 13.0410000000002,34.49 C12.8409999999999,34.6900000000001 12.5810000000001,34.79 12.3310000000001,34.79 ZM12.2809999999999,13.26 C12.0309999999999,13.26 11.7710000000002,13.16 11.5810000000001,12.97 C11.1909999999998,12.579 11.181,11.9400000000001 11.5810000000001,11.55 C11.9609999999998,11.16 12.6010000000001,11.16 12.991,11.55 C13.3809999999999,11.9400000000001 13.3809999999999,12.5700000000001 12.991,12.96 C12.8009999999999,13.16 12.5410000000002,13.26 12.2809999999999,13.26 ZM9.90099999999984,31.639 C9.56100000000015,31.639 9.221,31.46 9.03099999999995,31.139 C8.76099999999997,30.66 8.92099999999982,30.05 9.40099999999984,29.78 C9.88099999999986,29.5 10.491,29.66 10.761,30.139 C11.0410000000002,30.61 10.8809999999999,31.23 10.4009999999998,31.5 C10.241,31.59 10.0709999999999,31.639 9.90099999999984,31.639 ZM9.87100000000009,16.41 C9.70100000000002,16.41 9.53099999999995,16.369 9.37100000000009,16.28 C8.89100000000008,16.01 8.73100000000022,15.4 9.0010000000002,14.92 C9.28099999999995,14.4400000000001 9.89199999999983,14.27 10.3710000000001,14.55 C10.8510000000001,14.8200000000001 11.011,15.4299999999999 10.741,15.91 C10.5509999999999,16.23 10.2109999999998,16.41 9.87100000000009,16.41 ZM9.32099999999991,19.349 C9.20100000000002,19.79 8.80099999999993,20.09 8.35100000000011,20.09 C8.27100000000019,20.09 8.18100000000004,20.079 8.10100000000011,20.0599999999999 C7.57099999999991,19.92 7.2510000000002,19.369 7.39100000000008,18.829 C7.53099999999995,18.3 8.08100000000013,17.98 8.61099999999988,18.119 C9.14199999999983,18.26 9.46099999999979,18.8099999999999 9.32099999999991,19.349 ZM8.85100000000011,23.03 C8.85100000000011,23.579 8.40099999999984,24.03 7.85100000000011,24.03 C7.30099999999993,24.03 6.85100000000011,23.59 6.85100000000011,23.03 C6.85100000000011,22.48 7.29100000000017,22.03 7.85100000000011,22.03 C8.40099999999984,22.03 8.85100000000011,22.48 8.85100000000011,23.03 ZM8.11099999999988,26.01 C8.65099999999984,25.86 9.1909999999998,26.1799999999999 9.34099999999989,26.71 C9.48100000000022,27.24 9.16100000000006,27.79 8.63099999999986,27.9400000000001 C8.55099999999993,27.96 8.46099999999979,27.97 8.37100000000009,27.97 C7.93100000000004,27.97 7.53099999999995,27.6799999999999 7.41100000000006,27.23 C7.26099999999997,26.7 7.58100000000013,26.15 8.11099999999988,26.01 ZM36.7809999999999,29.75 C37.2510000000002,30.02 37.4209999999998,30.63 37.1419999999998,31.11 C36.9609999999998,31.4299999999999 36.6210000000001,31.61 36.2809999999999,31.61 C36.1010000000001,31.61 35.931,31.5700000000001 35.7809999999999,31.48 C35.3009999999999,31.2 35.1309999999999,30.59 35.4110000000001,30.11 C35.6909999999998,29.63 36.3009999999999,29.47 36.7809999999999,29.75 ZM36.8310000000001,26.6799999999999 C36.971,26.15 37.5210000000002,25.829 38.0610000000001,25.97 C38.5909999999999,26.119 38.9009999999998,26.66 38.761,27.2 C38.6410000000001,27.65 38.241,27.9400000000001 37.8009999999999,27.9400000000001 C37.7109999999998,27.9400000000001 37.6309999999999,27.9299999999999 37.5410000000002,27.91 C37.011,27.76 36.6909999999998,27.21 36.8310000000001,26.6799999999999 Z " fill="rgb( 80, 80, 112 )"/></svg>