<?xml version="1.0" ?><!DOCTYPE svg  PUBLIC '-//W3C//DTD SVG 1.1//EN'  'http://www.w3.org/Graphics/SVG/1.1/DTD/svg11.dtd'><svg baseProfile="full" height="38px" version="1.1" width="54px" xmlns="http://www.w3.org/2000/svg" xmlns:ev="http://www.w3.org/2001/xml-events" xmlns:xlink="http://www.w3.org/1999/xlink"><path d="M27.004,10 C27.561,10 28.013,10.448 28.013,11 C28.013,11 28.013,15.511 28.013,15.511 C28.013,15.511 52.5410000000001,34.421 52.5410000000001,34.421 C53.232,34.954 53.495,35.829 53.211,36.649 C52.927,37.47 52.178,38 51.303,38 C51.303,38 49.747,38 49.747,38 C48.184,38 46.645,37.477 45.4109999999999,36.526 C45.4109999999999,36.526 44.729,36 44.729,36 C44.729,36 9.279,36 9.279,36 C9.279,36 8.59699999999998,36.526 8.59699999999998,36.526 C7.36400000000003,37.477 5.82399999999996,38 4.26099999999997,38 C4.26099999999997,38 2.70600000000002,38 2.70600000000002,38 C1.83000000000004,38 1.08100000000002,37.47 0.79700000000003,36.649 C0.51300000000003,35.829 0.77599999999995,34.954 1.46699999999998,34.421 C1.46699999999998,34.421 25.995,15.511 25.995,15.511 C25.995,15.511 25.995,11.899 25.995,11.899 C23.138,11.419 20.951,8.96600000000001 20.951,6 C20.951,2.69100000000003 23.6660000000001,0 27.004,0 C30.342,0 33.057,2.69100000000003 33.057,6 C33.057,6.55200000000002 32.605,7 32.048,7 C31.491,7 31.04,6.55200000000002 31.04,6 C31.04,3.79399999999998 29.229,2 27.004,2 C24.779,2 22.9690000000001,3.79399999999998 22.9690000000001,6 C22.9690000000001,8.20600000000002 24.779,10 27.004,10 ZM42.135,34 C42.135,34 27.004,22.335 27.004,22.335 C27.004,22.335 11.873,34 11.873,34 C11.873,34 42.135,34 42.135,34 ZM2.70600000000002,36 C2.70600000000002,36 4.26099999999997,36 4.26099999999997,36 C5.37699999999995,36 6.47699999999998,35.626 7.35900000000004,34.947 C7.35900000000004,34.947 26.385,20.278 26.385,20.278 C26.567,20.138 26.785,20.067 27.004,20.067 C27.223,20.067 27.442,20.138 27.623,20.278 C27.623,20.278 46.65,34.947 46.65,34.947 C47.5309999999999,35.626 48.631,36 49.747,36 C49.747,36 51.303,36 51.303,36 C51.311,36 51.3150000000001,35.999 51.3150000000001,35.999 C51.3150000000001,35.999 27.004,17.2670000000001 27.004,17.2670000000001 C27.004,17.2670000000001 2.70600000000002,36 2.70600000000002,36 Z " fill="rgb( 80, 80, 112 )"/></svg>