<?xml version="1.0" ?><!DOCTYPE svg  PUBLIC '-//W3C//DTD SVG 1.1//EN'  'http://www.w3.org/Graphics/SVG/1.1/DTD/svg11.dtd'><svg baseProfile="full" height="55px" version="1.1" width="61px" xmlns="http://www.w3.org/2000/svg" xmlns:ev="http://www.w3.org/2001/xml-events" xmlns:xlink="http://www.w3.org/1999/xlink"><path d="M59.0060000000001,2.017 C59.0060000000001,2.017 58.0060000000001,2.017 58.0060000000001,2.017 C58.0060000000001,2.017 58.0060000000001,53.014 58.0060000000001,53.014 C58.0060000000001,53.567 57.559,54.014 57.0060000000001,54.014 C57.0060000000001,54.014 37.0050000000001,54.014 37.0050000000001,54.014 C37.0050000000001,54.014 23.0050000000001,54.014 23.0050000000001,54.014 C23.0050000000001,54.014 3.00399999999991,54.014 3.00399999999991,54.014 C2.452,54.014 2.00399999999991,53.567 2.00399999999991,53.014 C2.00399999999991,53.014 2.00399999999991,2.017 2.00399999999991,2.017 C2.00399999999991,2.017 1.00399999999991,2.017 1.00399999999991,2.017 C0.452,2.017 0.00399999999991,1.56999999999999 0.00399999999991,1.01799999999997 C0.00399999999991,0.46499999999997 0.452,0.01799999999997 1.00399999999991,0.01799999999997 C1.00399999999991,0.01799999999997 3.00399999999991,0.01799999999997 3.00399999999991,0.01799999999997 C3.00399999999991,0.01799999999997 57.0060000000001,0.01799999999997 57.0060000000001,0.01799999999997 C57.0060000000001,0.01799999999997 59.0060000000001,0.01799999999997 59.0060000000001,0.01799999999997 C59.559,0.01799999999997 60.0060000000001,0.46499999999997 60.0060000000001,1.01799999999997 C60.0060000000001,1.56999999999999 59.559,2.017 59.0060000000001,2.017 ZM24.0050000000001,52.014 C24.0050000000001,52.014 36.0050000000001,52.014 36.0050000000001,52.014 C36.0050000000001,52.014 36.0050000000001,34.016 36.0050000000001,34.016 C36.0050000000001,34.016 24.0050000000001,34.016 24.0050000000001,34.016 C24.0050000000001,34.016 24.0050000000001,52.014 24.0050000000001,52.014 ZM4.00399999999991,52.014 C4.00399999999991,52.014 22.0050000000001,52.014 22.0050000000001,52.014 C22.0050000000001,52.014 22.0050000000001,50.015 22.0050000000001,50.015 C22.0050000000001,50.015 4.00399999999991,50.015 4.00399999999991,50.015 C4.00399999999991,50.015 4.00399999999991,52.014 4.00399999999991,52.014 ZM56.0060000000001,2.017 C56.0060000000001,2.017 4.00399999999991,2.017 4.00399999999991,2.017 C4.00399999999991,2.017 4.00399999999991,4.017 4.00399999999991,4.017 C4.00399999999991,4.017 56.0060000000001,4.017 56.0060000000001,4.017 C56.0060000000001,4.017 56.0060000000001,2.017 56.0060000000001,2.017 ZM56.0060000000001,6.017 C56.0060000000001,6.017 54.0060000000001,6.017 54.0060000000001,6.017 C54.0060000000001,6.017 54.0060000000001,7.017 54.0060000000001,7.017 C54.0060000000001,7.56900000000002 53.558,8.017 53.0060000000001,8.017 C52.454,8.017 52.0060000000001,7.56900000000002 52.0060000000001,7.017 C52.0060000000001,7.017 52.0060000000001,6.017 52.0060000000001,6.017 C52.0060000000001,6.017 50.0060000000001,6.017 50.0060000000001,6.017 C50.0060000000001,6.017 50.0060000000001,7.017 50.0060000000001,7.017 C50.0060000000001,7.56900000000002 49.558,8.017 49.0060000000001,8.017 C48.454,8.017 48.0060000000001,7.56900000000002 48.0060000000001,7.017 C48.0060000000001,7.017 48.0060000000001,6.017 48.0060000000001,6.017 C48.0060000000001,6.017 46.0060000000001,6.017 46.0060000000001,6.017 C46.0060000000001,6.017 46.0060000000001,7.017 46.0060000000001,7.017 C46.0060000000001,7.56900000000002 45.558,8.017 45.0060000000001,8.017 C44.453,8.017 44.0060000000001,7.56900000000002 44.0060000000001,7.017 C44.0060000000001,7.017 44.0060000000001,6.017 44.0060000000001,6.017 C44.0060000000001,6.017 42.0060000000001,6.017 42.0060000000001,6.017 C42.0060000000001,6.017 42.0060000000001,7.017 42.0060000000001,7.017 C42.0060000000001,7.56900000000002 41.558,8.017 41.0060000000001,8.017 C40.453,8.017 40.0060000000001,7.56900000000002 40.0060000000001,7.017 C40.0060000000001,7.017 40.0060000000001,6.017 40.0060000000001,6.017 C40.0060000000001,6.017 38.0060000000001,6.017 38.0060000000001,6.017 C38.0060000000001,6.017 38.0060000000001,7.017 38.0060000000001,7.017 C38.0060000000001,7.56900000000002 37.558,8.017 37.0050000000001,8.017 C36.453,8.017 36.0050000000001,7.56900000000002 36.0050000000001,7.017 C36.0050000000001,7.017 36.0050000000001,6.017 36.0050000000001,6.017 C36.0050000000001,6.017 34.0060000000001,6.017 34.0060000000001,6.017 C34.0060000000001,6.017 34.0060000000001,7.017 34.0060000000001,7.017 C34.0060000000001,7.56900000000002 33.557,8.017 33.0050000000001,8.017 C32.453,8.017 32.0050000000001,7.56900000000002 32.0050000000001,7.017 C32.0050000000001,7.017 32.0050000000001,6.017 32.0050000000001,6.017 C32.0050000000001,6.017 28.0050000000001,6.017 28.0050000000001,6.017 C28.0050000000001,6.017 28.0050000000001,7.017 28.0050000000001,7.017 C28.0050000000001,7.56900000000002 27.558,8.017 27.0050000000001,8.017 C26.453,8.017 26.0050000000001,7.56900000000002 26.0050000000001,7.017 C26.0050000000001,7.017 26.0050000000001,6.017 26.0050000000001,6.017 C26.0050000000001,6.017 24.0050000000001,6.017 24.0050000000001,6.017 C24.0050000000001,6.017 24.0050000000001,7.017 24.0050000000001,7.017 C24.0050000000001,7.56900000000002 23.557,8.017 23.0050000000001,8.017 C22.453,8.017 22.0050000000001,7.56900000000002 22.0050000000001,7.017 C22.0050000000001,7.017 22.0050000000001,6.017 22.0050000000001,6.017 C22.0050000000001,6.017 20.0050000000001,6.017 20.0050000000001,6.017 C20.0050000000001,6.017 20.0050000000001,7.017 20.0050000000001,7.017 C20.0050000000001,7.56900000000002 19.557,8.017 19.0050000000001,8.017 C18.453,8.017 18.0050000000001,7.56900000000002 18.0050000000001,7.017 C18.0050000000001,7.017 18.0050000000001,6.017 18.0050000000001,6.017 C18.0050000000001,6.017 16.0050000000001,6.017 16.0050000000001,6.017 C16.0050000000001,6.017 16.0050000000001,7.017 16.0050000000001,7.017 C16.0050000000001,7.56900000000002 15.557,8.017 15.0050000000001,8.017 C14.453,8.017 14.0050000000001,7.56900000000002 14.0050000000001,7.017 C14.0050000000001,7.017 14.0050000000001,6.017 14.0050000000001,6.017 C14.0050000000001,6.017 12.0050000000001,6.017 12.0050000000001,6.017 C12.0050000000001,6.017 12.0050000000001,7.017 12.0050000000001,7.017 C12.0050000000001,7.56900000000002 11.557,8.017 11.0050000000001,8.017 C10.452,8.017 10.0050000000001,7.56900000000002 10.0050000000001,7.017 C10.0050000000001,7.017 10.0050000000001,6.017 10.0050000000001,6.017 C10.0050000000001,6.017 8.00500000000011,6.017 8.00500000000011,6.017 C8.00500000000011,6.017 8.00500000000011,7.017 8.00500000000011,7.017 C8.00500000000011,7.56900000000002 7.55700000000002,8.017 7.00399999999991,8.017 C6.452,8.017 6.00399999999991,7.56900000000002 6.00399999999991,7.017 C6.00399999999991,7.017 6.00399999999991,6.017 6.00399999999991,6.017 C6.00399999999991,6.017 4.00399999999991,6.017 4.00399999999991,6.017 C4.00399999999991,6.017 4.00399999999991,28.016 4.00399999999991,28.016 C4.00399999999991,28.016 56.0060000000001,28.016 56.0060000000001,28.016 C56.0060000000001,28.016 56.0060000000001,6.017 56.0060000000001,6.017 ZM56.0060000000001,30.016 C56.0060000000001,30.016 4.00399999999991,30.016 4.00399999999991,30.016 C4.00399999999991,30.016 4.00399999999991,48.015 4.00399999999991,48.015 C4.00399999999991,48.015 22.0050000000001,48.015 22.0050000000001,48.015 C22.0050000000001,48.015 22.0050000000001,33.016 22.0050000000001,33.016 C22.0050000000001,32.463 22.453,32.016 23.0050000000001,32.016 C23.0050000000001,32.016 37.0050000000001,32.016 37.0050000000001,32.016 C37.558,32.016 38.0060000000001,32.463 38.0060000000001,33.016 C38.0060000000001,33.016 38.0060000000001,48.015 38.0060000000001,48.015 C38.0060000000001,48.015 56.0060000000001,48.015 56.0060000000001,48.015 C56.0060000000001,48.015 56.0060000000001,30.016 56.0060000000001,30.016 ZM56.0060000000001,50.015 C56.0060000000001,50.015 38.0060000000001,50.015 38.0060000000001,50.015 C38.0060000000001,50.015 38.0060000000001,52.014 38.0060000000001,52.014 C38.0060000000001,52.014 56.0060000000001,52.014 56.0060000000001,52.014 C56.0060000000001,52.014 56.0060000000001,50.015 56.0060000000001,50.015 ZM40.0060000000001,42.015 C40.0060000000001,42.015 40.0060000000001,33.016 40.0060000000001,33.016 C40.0060000000001,32.463 40.453,32.016 41.0060000000001,32.016 C41.0060000000001,32.016 51.0060000000001,32.016 51.0060000000001,32.016 C51.558,32.016 52.0060000000001,32.463 52.0060000000001,33.016 C52.0060000000001,33.016 52.0060000000001,42.015 52.0060000000001,42.015 C52.558,42.015 53.0060000000001,42.463 53.0060000000001,43.015 C53.0060000000001,43.567 52.558,44.015 52.0060000000001,44.015 C52.0060000000001,44.015 51.0060000000001,44.015 51.0060000000001,44.015 C51.0060000000001,44.015 41.0060000000001,44.015 41.0060000000001,44.015 C41.0060000000001,44.015 40.0060000000001,44.015 40.0060000000001,44.015 C39.453,44.015 39.0060000000001,43.567 39.0060000000001,43.015 C39.0060000000001,42.463 39.453,42.015 40.0060000000001,42.015 ZM47.0060000000001,42.015 C47.0060000000001,42.015 50.0060000000001,42.015 50.0060000000001,42.015 C50.0060000000001,42.015 50.0060000000001,34.016 50.0060000000001,34.016 C50.0060000000001,34.016 47.0060000000001,34.016 47.0060000000001,34.016 C47.0060000000001,34.016 47.0060000000001,42.015 47.0060000000001,42.015 ZM42.0060000000001,42.015 C42.0060000000001,42.015 45.0060000000001,42.015 45.0060000000001,42.015 C45.0060000000001,42.015 45.0060000000001,34.016 45.0060000000001,34.016 C45.0060000000001,34.016 42.0060000000001,34.016 42.0060000000001,34.016 C42.0060000000001,34.016 42.0060000000001,42.015 42.0060000000001,42.015 ZM20.0050000000001,44.015 C20.0050000000001,44.015 19.0050000000001,44.015 19.0050000000001,44.015 C19.0050000000001,44.015 9.00500000000011,44.015 9.00500000000011,44.015 C9.00500000000011,44.015 8.00500000000011,44.015 8.00500000000011,44.015 C7.452,44.015 7.00399999999991,43.567 7.00399999999991,43.015 C7.00399999999991,42.463 7.452,42.015 8.00500000000011,42.015 C8.00500000000011,42.015 8.00500000000011,33.016 8.00500000000011,33.016 C8.00500000000011,32.463 8.452,32.016 9.00500000000011,32.016 C9.00500000000011,32.016 19.0050000000001,32.016 19.0050000000001,32.016 C19.557,32.016 20.0050000000001,32.463 20.0050000000001,33.016 C20.0050000000001,33.016 20.0050000000001,42.015 20.0050000000001,42.015 C20.557,42.015 21.0050000000001,42.463 21.0050000000001,43.015 C21.0050000000001,43.567 20.557,44.015 20.0050000000001,44.015 ZM13.0050000000001,34.016 C13.0050000000001,34.016 10.0050000000001,34.016 10.0050000000001,34.016 C10.0050000000001,34.016 10.0050000000001,42.015 10.0050000000001,42.015 C10.0050000000001,42.015 13.0050000000001,42.015 13.0050000000001,42.015 C13.0050000000001,42.015 13.0050000000001,34.016 13.0050000000001,34.016 ZM18.0050000000001,34.016 C18.0050000000001,34.016 15.0050000000001,34.016 15.0050000000001,34.016 C15.0050000000001,34.016 15.0050000000001,42.015 15.0050000000001,42.015 C15.0050000000001,42.015 18.0050000000001,42.015 18.0050000000001,42.015 C18.0050000000001,42.015 18.0050000000001,34.016 18.0050000000001,34.016 ZM8.00500000000011,22.016 C8.00500000000011,22.016 8.00500000000011,13.017 8.00500000000011,13.017 C8.00500000000011,12.465 8.452,12.017 9.00500000000011,12.017 C9.00500000000011,12.017 19.0050000000001,12.017 19.0050000000001,12.017 C19.557,12.017 20.0050000000001,12.465 20.0050000000001,13.017 C20.0050000000001,13.017 20.0050000000001,22.016 20.0050000000001,22.016 C20.557,22.016 21.0050000000001,22.464 21.0050000000001,23.016 C21.0050000000001,23.568 20.557,24.016 20.0050000000001,24.016 C20.0050000000001,24.016 19.0050000000001,24.016 19.0050000000001,24.016 C19.0050000000001,24.016 9.00500000000011,24.016 9.00500000000011,24.016 C9.00500000000011,24.016 8.00500000000011,24.016 8.00500000000011,24.016 C7.452,24.016 7.00399999999991,23.568 7.00399999999991,23.016 C7.00399999999991,22.464 7.452,22.016 8.00500000000011,22.016 ZM15.0050000000001,22.016 C15.0050000000001,22.016 18.0050000000001,22.016 18.0050000000001,22.016 C18.0050000000001,22.016 18.0050000000001,14.017 18.0050000000001,14.017 C18.0050000000001,14.017 15.0050000000001,14.017 15.0050000000001,14.017 C15.0050000000001,14.017 15.0050000000001,22.016 15.0050000000001,22.016 ZM10.0050000000001,22.016 C10.0050000000001,22.016 13.0050000000001,22.016 13.0050000000001,22.016 C13.0050000000001,22.016 13.0050000000001,14.017 13.0050000000001,14.017 C13.0050000000001,14.017 10.0050000000001,14.017 10.0050000000001,14.017 C10.0050000000001,14.017 10.0050000000001,22.016 10.0050000000001,22.016 ZM24.0050000000001,22.016 C24.0050000000001,22.016 24.0050000000001,13.017 24.0050000000001,13.017 C24.0050000000001,12.465 24.453,12.017 25.0050000000001,12.017 C25.0050000000001,12.017 35.0050000000001,12.017 35.0050000000001,12.017 C35.558,12.017 36.0050000000001,12.465 36.0050000000001,13.017 C36.0050000000001,13.017 36.0050000000001,22.016 36.0050000000001,22.016 C36.558,22.016 37.0050000000001,22.464 37.0050000000001,23.016 C37.0050000000001,23.568 36.558,24.016 36.0050000000001,24.016 C36.0050000000001,24.016 35.0050000000001,24.016 35.0050000000001,24.016 C35.0050000000001,24.016 25.0050000000001,24.016 25.0050000000001,24.016 C25.0050000000001,24.016 24.0050000000001,24.016 24.0050000000001,24.016 C23.453,24.016 23.0050000000001,23.568 23.0050000000001,23.016 C23.0050000000001,22.464 23.453,22.016 24.0050000000001,22.016 ZM31.0050000000001,22.016 C31.0050000000001,22.016 34.0060000000001,22.016 34.0060000000001,22.016 C34.0060000000001,22.016 34.0060000000001,14.017 34.0060000000001,14.017 C34.0060000000001,14.017 31.0050000000001,14.017 31.0050000000001,14.017 C31.0050000000001,14.017 31.0050000000001,22.016 31.0050000000001,22.016 ZM26.0050000000001,22.016 C26.0050000000001,22.016 29.0050000000001,22.016 29.0050000000001,22.016 C29.0050000000001,22.016 29.0050000000001,14.017 29.0050000000001,14.017 C29.0050000000001,14.017 26.0050000000001,14.017 26.0050000000001,14.017 C26.0050000000001,14.017 26.0050000000001,22.016 26.0050000000001,22.016 ZM40.0060000000001,22.016 C40.0060000000001,22.016 40.0060000000001,13.017 40.0060000000001,13.017 C40.0060000000001,12.465 40.453,12.017 41.0060000000001,12.017 C41.0060000000001,12.017 51.0060000000001,12.017 51.0060000000001,12.017 C51.558,12.017 52.0060000000001,12.465 52.0060000000001,13.017 C52.0060000000001,13.017 52.0060000000001,22.016 52.0060000000001,22.016 C52.558,22.016 53.0060000000001,22.464 53.0060000000001,23.016 C53.0060000000001,23.568 52.558,24.016 52.0060000000001,24.016 C52.0060000000001,24.016 51.0060000000001,24.016 51.0060000000001,24.016 C51.0060000000001,24.016 41.0060000000001,24.016 41.0060000000001,24.016 C41.0060000000001,24.016 40.0060000000001,24.016 40.0060000000001,24.016 C39.453,24.016 39.0060000000001,23.568 39.0060000000001,23.016 C39.0060000000001,22.464 39.453,22.016 40.0060000000001,22.016 ZM47.0060000000001,22.016 C47.0060000000001,22.016 50.0060000000001,22.016 50.0060000000001,22.016 C50.0060000000001,22.016 50.0060000000001,14.017 50.0060000000001,14.017 C50.0060000000001,14.017 47.0060000000001,14.017 47.0060000000001,14.017 C47.0060000000001,14.017 47.0060000000001,22.016 47.0060000000001,22.016 ZM42.0060000000001,22.016 C42.0060000000001,22.016 45.0060000000001,22.016 45.0060000000001,22.016 C45.0060000000001,22.016 45.0060000000001,14.017 45.0060000000001,14.017 C45.0060000000001,14.017 42.0060000000001,14.017 42.0060000000001,14.017 C42.0060000000001,14.017 42.0060000000001,22.016 42.0060000000001,22.016 ZM27.0050000000001,44.065 C26.453,44.065 25.9549999999999,43.567 25.9549999999999,43.015 C25.9549999999999,42.463 26.453,41.965 27.0050000000001,41.965 C27.558,41.965 28.0550000000001,42.463 28.0550000000001,43.015 C28.0550000000001,43.567 27.558,44.065 27.0050000000001,44.065 Z " fill="rgb( 80, 80, 112 )"/></svg>