<?xml version="1.0" ?><!DOCTYPE svg  PUBLIC '-//W3C//DTD SVG 1.1//EN'  'http://www.w3.org/Graphics/SVG/1.1/DTD/svg11.dtd'><svg baseProfile="full" height="59px" version="1.1" width="58px" xmlns="http://www.w3.org/2000/svg" xmlns:ev="http://www.w3.org/2001/xml-events" xmlns:xlink="http://www.w3.org/1999/xlink"><path d="M55,31 C54.448,31 54,30.552 54,30 C54,30 54,3.387 54,3.387 C54,3.387 38,8.721 38,8.721 C38,8.721 38,31 38,31 C38,31.552 37.552,32 37,32 C36.448,32 36,31.552 36,31 C36,31 36,8.721 36,8.721 C36,8.721 20,3.387 20,3.387 C20,3.387 20,49.279 20,49.279 C20,49.279 30.316,52.717 30.316,52.717 C30.84,52.892 31.123,53.459 30.949,53.982 C30.774,54.506 30.21,54.79 29.683,54.615 C29.683,54.615 19,51.054 19,51.054 C19,51.054 1.31599999999997,56.948 1.31599999999997,56.948 C1.21300000000002,56.983 1.10599999999999,57 1,57 C0.79300000000001,57 0.58800000000002,56.935 0.41500000000002,56.811 C0.154,56.623 0,56.321 0,56 C0,56 0,8 0,8 C0,7.56900000000002 0.27499999999998,7.18700000000001 0.68299999999999,7.05099999999999 C0.68299999999999,7.05099999999999 18.683,1.05099999999999 18.683,1.05099999999999 C18.786,1.017 18.892,1 18.998,1 C18.998,1 18.999,1 19,1 C19,1 19,1 19.001,1 C19.107,1 19.213,1.017 19.316,1.05099999999999 C19.316,1.05099999999999 37,6.94499999999999 37,6.94499999999999 C37,6.94499999999999 54.683,1.05099999999999 54.683,1.05099999999999 C54.987,0.94900000000001 55.323,1 55.584,1.18900000000002 C55.846,1.37700000000001 56,1.678 56,2 C56,2 56,30 56,30 C56,30.552 55.552,31 55,31 ZM18,3.387 C18,3.387 2,8.72000000000003 2,8.72000000000003 C2,8.72000000000003 2,54.612 2,54.612 C2,54.612 18,49.279 18,49.279 C18,49.279 18,3.387 18,3.387 ZM45,33 C52.168,33 58,38.831 58,46 C58,53.168 52.168,59 45,59 C37.831,59 32,53.168 32,46 C32,38.831 37.831,33 45,33 ZM45,57 C51.065,57 56,52.065 56,46 C56,39.934 51.065,35 45,35 C38.934,35 34,39.934 34,46 C34,52.065 38.934,57 45,57 ZM40.69,46.277 C40.69,46.277 43.517,48.974 43.517,48.974 C43.517,48.974 49.182,40.924 49.182,40.924 C49.5,40.473 50.122,40.364 50.576,40.682 C51.027,41 51.136,41.624 50.818,42.075 C50.818,42.075 44.484,51.075 44.484,51.075 C44.317,51.313 44.053,51.466 43.764,51.495 C43.731,51.498 43.699,51.5 43.666,51.5 C43.411,51.5 43.163,51.401 42.976,51.223 C42.976,51.223 39.309,47.723 39.309,47.723 C38.91,47.341 38.895,46.709 39.277,46.309 C39.658,45.908 40.29,45.895 40.69,46.277 Z " fill="rgb( 80, 80, 112 )"/></svg>