<?xml version="1.0" ?><!DOCTYPE svg  PUBLIC '-//W3C//DTD SVG 1.1//EN'  'http://www.w3.org/Graphics/SVG/1.1/DTD/svg11.dtd'><svg baseProfile="full" height="58px" version="1.1" width="62px" xmlns="http://www.w3.org/2000/svg" xmlns:ev="http://www.w3.org/2001/xml-events" xmlns:xlink="http://www.w3.org/1999/xlink"><path d="M60.7069999999999,10.707 C60.7069999999999,10.707 53.692,17.722 53.692,17.722 C54.6849999999999,19.99 55.1170000000002,22.412 54.973,24.965 C54.3580000000002,35.787 43.6950000000002,44.243 35.9079999999999,50.417 C32.6999999999998,52.961 29.9290000000001,55.159 28.8389999999999,56.785 C28.6529999999998,57.061 28.3409999999999,57.227 28.0079999999998,57.227 C28.0059999999999,57.227 28.0039999999999,57.227 28.0010000000002,57.227 C27.665,57.225 27.3530000000001,57.055 27.1700000000001,56.773 C26.1039999999998,55.136 23.326,52.936 20.1080000000002,50.389 C18.857,49.399 17.529,48.343 16.181,47.232 C16.181,47.232 9.70200000000023,53.712 9.70200000000023,53.712 C9.70200000000023,53.712 11.683,53.051 11.683,53.051 C12.21,52.874 12.7739999999999,53.16 12.9479999999999,53.683 C13.123,54.207 12.8400000000001,54.774 12.3159999999998,54.949 C12.3159999999998,54.949 6.3159999999998,56.949 6.3159999999998,56.949 C6.21099999999979,56.984 6.10399999999981,57 6,57 C5.89300000000003,57 5.78800000000001,56.982 5.68899999999985,56.949 C5.6869999999999,56.949 5.68499999999995,56.949 5.68299999999999,56.949 C5.67399999999998,56.946 5.66800000000012,56.939 5.65999999999985,56.935 C5.54300000000012,56.892 5.4380000000001,56.824 5.34400000000005,56.741 C5.33599999999979,56.735 5.32600000000002,56.731 5.31800000000021,56.724 C5.30999999999995,56.716 5.30000000000018,56.714 5.29300000000012,56.707 C5.2800000000002,56.694 5.27199999999993,56.677 5.26299999999992,56.662 C5.20400000000018,56.597 5.15700000000015,56.523 5.11700000000019,56.442 C5.11000000000013,56.43 5.09999999999991,56.421 5.09400000000005,56.408 C5.0920000000001,56.402 5.0920000000001,56.395 5.08899999999994,56.389 C5.07799999999997,56.363 5.05999999999995,56.343 5.05099999999993,56.316 C5.03499999999985,56.268 5.04199999999992,56.22 5.0329999999999,56.172 C5.02199999999993,56.128 5.00900000000001,56.085 5.00700000000006,56.038 C5.00700000000006,56.025 5.01099999999997,56.013 5.01200000000017,56 C5.01200000000017,55.93 5.02300000000014,55.865 5.03699999999981,55.798 C5.03999999999996,55.76 5.03800000000001,55.722 5.05099999999993,55.683 C5.05099999999993,55.683 7.05099999999993,49.684 7.05099999999993,49.684 C7.22499999999991,49.16 7.78999999999996,48.875 8.3159999999998,49.051 C8.84000000000015,49.226 9.12300000000005,49.792 8.94799999999987,50.316 C8.94799999999987,50.316 8.28800000000001,52.298 8.28800000000001,52.298 C8.28800000000001,52.298 14.6439999999998,45.942 14.6439999999998,45.942 C8.16800000000012,40.413 1.67599999999993,33.487 1.04399999999987,24.982 C0.43600000000015,16.797 6.17999999999984,10.967 12.1700000000001,9.43900000000002 C17.261,8.13799999999998 23.9229999999998,9.495 28.0549999999998,16.851 C32.3240000000001,9.93599999999998 38.5349999999999,8.358 43.3000000000002,9.28500000000003 C43.3000000000002,9.28500000000003 51.2930000000001,1.29300000000001 51.2930000000001,1.29300000000001 C51.578,1.00599999999997 52.0079999999998,0.92099999999999 52.3829999999998,1.07600000000002 C52.7559999999999,1.23099999999999 53,1.596 53,2 C53,2 53,9 53,9 C53,9 60,9 60,9 C60.404,9 60.7689999999998,9.24400000000003 60.924,9.61700000000002 C61.078,9.99099999999999 60.9929999999999,10.421 60.7069999999999,10.707 ZM28.2930000000001,32.293 C28.2930000000001,32.293 41,19.586 41,19.586 C41,19.586 41,12 41,12 C41,11.735 41.105,11.48 41.2930000000001,11.293 C41.2930000000001,11.293 41.529,11.057 41.529,11.057 C36.4639999999999,10.665 31.8339999999998,13.684 28.8989999999999,19.43 C28.7240000000002,19.771 28.3649999999998,20.001 27.9850000000001,19.974 C27.6010000000001,19.965 27.2559999999999,19.737 27.0970000000002,19.388 C23.5949999999998,11.66 17.3449999999998,10.184 12.665,11.377 C7.48199999999997,12.699 2.51099999999997,17.747 3.03800000000001,24.834 C3.78800000000001,34.919 13.9380000000001,42.955 21.3499999999999,48.822 C24.2040000000002,51.081 26.5680000000002,52.952 28.0160000000001,54.604 C29.4720000000002,52.969 31.8249999999998,51.103 34.6660000000002,48.85 C42.1550000000002,42.911 52.4119999999998,34.778 52.9749999999999,24.852 C53.087,22.883 52.7930000000001,21.014 52.1460000000002,19.267 C52.1460000000002,19.267 50.7069999999999,20.707 50.7069999999999,20.707 C50.5189999999998,20.894 50.2649999999999,21 50,21 C50,21 42.4140000000002,21 42.4140000000002,21 C42.4140000000002,21 29.7069999999999,33.707 29.7069999999999,33.707 C29.5120000000002,33.902 29.2559999999999,34 29,34 C28.7440000000001,34 28.4879999999998,33.902 28.2930000000001,33.707 C27.902,33.316 27.902,32.683 28.2930000000001,32.293 ZM52,11 C51.4479999999999,11 51,10.552 51,10 C51,10 51,4.41399999999999 51,4.41399999999999 C51,4.41399999999999 43,12.414 43,12.414 C43,12.414 43,17.586 43,17.586 C43,17.586 48.2930000000001,12.293 48.2930000000001,12.293 C48.6840000000002,11.902 49.3159999999998,11.902 49.7069999999999,12.293 C50.0970000000002,12.683 50.0970000000002,13.316 49.7069999999999,13.707 C49.7069999999999,13.707 44.4140000000002,19 44.4140000000002,19 C44.4140000000002,19 49.5859999999998,19 49.5859999999998,19 C49.5859999999998,19 57.5859999999998,11 57.5859999999998,11 C57.5859999999998,11 52,11 52,11 Z " fill="rgb( 80, 80, 112 )"/></svg>