<?xml version="1.0" encoding="utf-8"?>
<!-- Generator: Adobe Illustrator 16.0.0, SVG Export Plug-In . SVG Version: 6.00 Build 0)  -->
<!DOCTYPE svg PUBLIC "-//W3C//DTD SVG 1.1//EN" "http://www.w3.org/Graphics/SVG/1.1/DTD/svg11.dtd">
<svg version="1.1" id="Layer_1" xmlns="http://www.w3.org/2000/svg" xmlns:xlink="http://www.w3.org/1999/xlink" x="0px" y="0px"
	 width="500px" height="500px" viewBox="0 0 500 500" enable-background="new 0 0 500 500" xml:space="preserve">
<path d="M278.551,270.503c0.391,0.391,0.391,1.023,0,1.414l-27.526,27.526c-0.391,0.391-1.023,0.391-1.414,0l-27.526-27.526
	c-0.391-0.391-0.391-1.023,0-1.414l27.526-27.526c0.391-0.391,1.023-0.391,1.414,0L278.551,270.503z"/>
<path d="M364.452,267.611c0,4.418-3.582,8-8,8h-212.27c-4.418,0-8-3.582-8-8v-59.528c0-4.418,3.582-8,8-8h212.27
	c4.418,0,8,3.582,8,8V267.611z"/>
<g>
	<path fill="#FFFFFF" d="M165.09,229.327h-8.329v-4.375h21.495v4.375h-8.329v22.799h-4.836V229.327z"/>
	<path fill="#FFFFFF" d="M185.739,236.274h0.077c0.358-0.768,0.992-1.464,1.9-2.092c0.908-0.627,2.079-0.94,3.512-0.94
		c1.229,0,2.271,0.205,3.128,0.614c0.857,0.41,1.554,0.947,2.092,1.612c0.537,0.666,0.921,1.434,1.151,2.303
		c0.23,0.87,0.346,1.779,0.346,2.725v11.63h-4.606v-9.327c0-0.511-0.026-1.081-0.077-1.708c-0.051-0.626-0.186-1.215-0.403-1.766
		c-0.218-0.55-0.557-1.01-1.017-1.382c-0.46-0.371-1.088-0.556-1.881-0.556c-0.768,0-1.414,0.128-1.938,0.384
		s-0.959,0.602-1.305,1.036c-0.346,0.436-0.595,0.935-0.749,1.497c-0.154,0.563-0.23,1.151-0.23,1.766v10.056h-4.606v-29.018h4.606
		V236.274z"/>
	<path fill="#FFFFFF" d="M206.85,244.526c0.153,1.382,0.691,2.457,1.612,3.224c0.921,0.768,2.034,1.151,3.339,1.151
		c1.151,0,2.117-0.236,2.898-0.71c0.78-0.473,1.464-1.068,2.054-1.785l3.301,2.495c-1.075,1.331-2.278,2.278-3.608,2.84
		c-1.331,0.562-2.726,0.844-4.184,0.844c-1.381,0-2.687-0.229-3.915-0.69c-1.228-0.46-2.29-1.113-3.186-1.958
		c-0.896-0.844-1.606-1.861-2.13-3.051c-0.525-1.19-0.787-2.514-0.787-3.973s0.262-2.783,0.787-3.973
		c0.524-1.19,1.234-2.207,2.13-3.051c0.896-0.844,1.958-1.497,3.186-1.958c1.229-0.46,2.534-0.691,3.915-0.691
		c1.279,0,2.45,0.224,3.512,0.672c1.062,0.448,1.97,1.094,2.725,1.938c0.754,0.845,1.343,1.888,1.766,3.128
		c0.422,1.241,0.633,2.667,0.633,4.28v1.267H206.85z M216.292,241.072c-0.026-1.356-0.448-2.424-1.267-3.205
		c-0.819-0.78-1.958-1.17-3.416-1.17c-1.382,0-2.476,0.397-3.282,1.189c-0.806,0.793-1.299,1.856-1.478,3.186H216.292z"/>
	<path fill="#FFFFFF" d="M233.832,224.951h5.565l7.408,20.535l7.637-20.535h5.221l-10.978,27.175h-4.184L233.832,224.951z"/>
	<path fill="#FFFFFF" d="M263.732,244.526c0.153,1.382,0.69,2.457,1.612,3.224c0.921,0.768,2.034,1.151,3.339,1.151
		c1.151,0,2.117-0.236,2.897-0.71c0.78-0.473,1.465-1.068,2.054-1.785l3.301,2.495c-1.074,1.331-2.277,2.278-3.607,2.84
		c-1.331,0.562-2.726,0.844-4.184,0.844c-1.382,0-2.688-0.229-3.915-0.69c-1.229-0.46-2.291-1.113-3.187-1.958
		c-0.896-0.844-1.605-1.861-2.13-3.051s-0.787-2.514-0.787-3.973s0.263-2.783,0.787-3.973s1.234-2.207,2.13-3.051
		s1.958-1.497,3.187-1.958c1.228-0.46,2.533-0.691,3.915-0.691c1.279,0,2.449,0.224,3.512,0.672c1.062,0.448,1.97,1.094,2.726,1.938
		c0.754,0.845,1.343,1.888,1.766,3.128c0.422,1.241,0.633,2.667,0.633,4.28v1.267H263.732z M273.175,241.072
		c-0.026-1.356-0.448-2.424-1.267-3.205c-0.819-0.78-1.958-1.17-3.416-1.17c-1.382,0-2.477,0.397-3.282,1.189
		c-0.806,0.793-1.299,1.856-1.478,3.186H273.175z"/>
	<path fill="#FFFFFF" d="M282.079,233.702h4.375v2.956h0.077c0.435-0.921,1.1-1.721,1.996-2.399c0.896-0.678,2.11-1.017,3.646-1.017
		c1.228,0,2.271,0.205,3.128,0.614c0.856,0.41,1.555,0.947,2.092,1.612c0.537,0.666,0.921,1.434,1.151,2.303
		c0.23,0.87,0.346,1.779,0.346,2.725v11.63h-4.606v-9.327c0-0.511-0.025-1.081-0.076-1.708c-0.052-0.626-0.187-1.215-0.403-1.766
		c-0.218-0.55-0.557-1.01-1.018-1.382c-0.46-0.371-1.088-0.556-1.88-0.556c-0.769,0-1.415,0.128-1.938,0.384
		c-0.525,0.256-0.96,0.602-1.306,1.036c-0.345,0.436-0.595,0.935-0.748,1.497c-0.153,0.563-0.23,1.151-0.23,1.766v10.056h-4.605
		V233.702z"/>
	<path fill="#FFFFFF" d="M320.922,252.126h-4.376v-2.956h-0.076c-0.436,0.921-1.101,1.721-1.996,2.399
		c-0.896,0.678-2.111,1.017-3.646,1.017c-1.229,0-2.271-0.197-3.128-0.594c-0.858-0.396-1.555-0.935-2.092-1.613
		c-0.538-0.678-0.922-1.452-1.152-2.322c-0.229-0.87-0.345-1.778-0.345-2.726v-11.63h4.605v9.327c0,0.512,0.025,1.081,0.077,1.708
		c0.051,0.627,0.186,1.216,0.402,1.766c0.218,0.55,0.551,1.011,0.998,1.382c0.447,0.371,1.081,0.557,1.9,0.557
		c0.768,0,1.413-0.128,1.938-0.384c0.523-0.256,0.959-0.601,1.305-1.037c0.346-0.435,0.595-0.934,0.748-1.497
		c0.154-0.562,0.23-1.151,0.23-1.766v-10.056h4.606V252.126z"/>
	<path fill="#FFFFFF" d="M329.826,244.526c0.153,1.382,0.69,2.457,1.612,3.224c0.921,0.768,2.034,1.151,3.339,1.151
		c1.151,0,2.117-0.236,2.897-0.71c0.78-0.473,1.465-1.068,2.054-1.785l3.301,2.495c-1.074,1.331-2.277,2.278-3.607,2.84
		c-1.331,0.562-2.726,0.844-4.184,0.844c-1.382,0-2.688-0.229-3.915-0.69c-1.229-0.46-2.291-1.113-3.187-1.958
		c-0.896-0.844-1.605-1.861-2.13-3.051s-0.787-2.514-0.787-3.973s0.263-2.783,0.787-3.973s1.234-2.207,2.13-3.051
		s1.958-1.497,3.187-1.958c1.228-0.46,2.533-0.691,3.915-0.691c1.279,0,2.449,0.224,3.512,0.672c1.062,0.448,1.97,1.094,2.726,1.938
		c0.754,0.845,1.343,1.888,1.766,3.128c0.422,1.241,0.633,2.667,0.633,4.28v1.267H329.826z M339.269,241.072
		c-0.026-1.356-0.448-2.424-1.267-3.205c-0.819-0.78-1.958-1.17-3.416-1.17c-1.382,0-2.477,0.397-3.282,1.189
		c-0.806,0.793-1.299,1.856-1.478,3.186H339.269z"/>
</g>
</svg>
