<?xml version="1.0" encoding="utf-8"?>
<!-- Generator: Adobe Illustrator 15.1.0, SVG Export Plug-In . SVG Version: 6.00 Build 0)  -->
<!DOCTYPE svg PUBLIC "-//W3C//DTD SVG 1.1//EN" "http://www.w3.org/Graphics/SVG/1.1/DTD/svg11.dtd">
<svg version="1.1" id="Layer_1" xmlns="http://www.w3.org/2000/svg" xmlns:xlink="http://www.w3.org/1999/xlink" x="0px" y="0px"
	 width="512px" height="302px" viewBox="0 0 512 302" enable-background="new 0 0 512 302" xml:space="preserve">
<path fill="#FFFFFF" d="M151.099,16.778C77.052,16.778,16.804,76.993,16.804,151s60.248,134.222,134.295,134.222
	c34.069,0,65.125-12.852,88.828-33.823c-24.769-27.692-38.467-62.968-38.467-100.398c0-38.564,14.663-73.68,38.542-100.398
	C215.435,28.816,184.219,16.778,151.099,16.778z M352.541,302c-26.774,0-53.088-7.098-76.095-20.52
	c-4.004-2.341-5.354-7.482-3.013-11.484c2.333-4.001,7.47-5.352,11.481-3.012c20.43,11.93,43.822,18.237,67.626,18.237
	c74.047,0,134.295-60.215,134.295-134.222S426.588,16.778,352.541,16.778S218.246,76.993,218.246,151
	c0,32.943,11.936,64.016,33.541,88.52c20.849-23.657,33.607-54.595,33.607-88.52c0-22.902-5.867-45.493-16.963-65.35
	c-2.258-4.052-0.814-9.152,3.231-11.417c4.046-2.257,9.166-0.814,11.424,3.229c12.489,22.356,19.095,47.783,19.095,73.537
	c0,83.26-67.777,151-151.082,151C67.794,302,0.017,234.26,0.017,151S67.794,0,151.099,0c37.594,0,73.015,13.792,100.763,38.731
	C278.62,14.739,313.848,0,352.541,0c83.306,0,151.082,67.74,151.082,151S435.847,302,352.541,302z"/>
</svg>
